<?xml version="1.0" encoding="UTF-8"?><svg id="uuid-e245caf8-5779-4755-a234-64ba52b908a8" xmlns="http://www.w3.org/2000/svg" xmlns:xlink="http://www.w3.org/1999/xlink" viewBox="0 0 618.23 170.34"><defs><linearGradient id="uuid-adce7b6a-dddb-4155-85b1-7d6665be8c6a" x1="40.77" y1="106.93" x2="76.33" y2="36.92" gradientTransform="translate(0 172) scale(1 -1)" gradientUnits="userSpaceOnUse"><stop offset="0" stop-color="#fff" stop-opacity="0"/><stop offset="1" stop-color="#000"/></linearGradient></defs><g id="uuid-cd4be334-779a-4379-80bc-72eaaf5ef19d"><g id="uuid-d847fca3-5769-4292-a896-f9cdf4067b86"><g id="uuid-9c7b3b3f-2b9a-4821-ab0c-d027259b8a5b"><rect y="33.19" width="618.23" height="137.15"/><path d="m85.33,133.85h-22.06c-7.39-22.85-18.77-46.6-34.86-67.85h21c1.52,0,2.91.86,3.59,2.22,10.5,13.95,21.83,37.65,32.33,65.63Z" style="fill:#05faa0;"/><path d="m85.33,133.85h-22.06c-7.39-22.85-18.77-46.6-34.86-67.85h21c1.52,0,2.91.86,3.59,2.22,10.5,13.95,21.83,37.65,32.33,65.63Z" style="fill:url(#uuid-adce7b6a-dddb-4155-85b1-7d6665be8c6a); isolation:isolate; opacity:.7;"/><path d="m135.17,69.79h7.51c1.07.03,1.92.88,1.95,1.95v60.16c-.03,1.07-.88,1.92-1.95,1.95h-7.51c-1.07,0-1.94-.87-1.94-1.94,0,0,0,0,0-.01v-60.16c0-1.07.86-1.94,1.93-1.95,0,0,0,0,.01,0Z" style="fill:#fff;"/><path d="m178.78,69.79h38.54c1.09,0,1.97.87,2,1.95v6.06c0,1.07-.87,1.94-1.94,1.94-.02,0-.04,0-.06,0h-27.14c-1.1,0-2,.9-2,2v12.4c0,1.07.87,1.94,1.94,1.94.02,0,.04,0,.06,0h25.51c1.07,0,1.94.85,1.95,1.92v5.71c0,1.07-.87,1.94-1.94,1.94,0,0,0,0-.01,0h-25.51c-1.07-.03-1.97.81-2,1.88,0,.02,0,.04,0,.06v14.21c0,1.07.87,1.94,1.94,1.94.02,0,.04,0,.06,0h28.82c1.07,0,1.94.87,1.94,1.94,0,.02,0,.04,0,.06v6.24c0,1.07-.86,1.94-1.93,1.95,0,0,0,0-.01,0h-40.22c-1.07,0-1.94-.87-1.94-1.94,0,0,0,0,0-.01v-60.24c0-1.07.86-1.94,1.93-1.95,0,0,0,0,.01,0Z" style="fill:#fff;"/><path d="m250.11,71.74c.03-1.07.88-1.92,1.95-1.95h20.31c2.95,0,5.9.31,8.78.95,2.68.58,5.24,1.64,7.55,3.12,2.2,1.45,4.01,3.4,5.29,5.7,1.4,2.64,2.09,5.61,2,8.6,0,4.67-1.31,8.45-3.93,11.35-2.27,2.48-5.16,4.3-8.37,5.28-1.01.36-1.53,1.47-1.17,2.48.04.13.1.25.17.36l14,23.27c.53.97.17,2.19-.81,2.71-.26.14-.55.22-.85.24h-9.16c-.71,0-1.36-.39-1.71-1l-13.73-25.11c-.35-.61-1-.99-1.71-1h-5.22c-1.08.03-1.95.91-1.95,2v23.16c0,1.07-.86,1.94-1.93,1.95,0,0,0,0-.01,0h-7.51c-1.07-.03-1.92-.88-1.95-1.95l-.04-60.16Zm20.72,25.65c1.64,0,3.27-.12,4.89-.37,1.53-.21,3.01-.66,4.39-1.35,1.29-.67,2.39-1.65,3.21-2.85.89-1.42,1.33-3.08,1.26-4.75.06-1.52-.34-3.02-1.17-4.3-.78-1.11-1.81-2.02-3-2.67-1.28-.68-2.67-1.14-4.11-1.36-1.48-.24-2.98-.36-4.48-.36h-8.37c-1.08.03-1.95.91-1.95,2v14.06c0,1.09.87,1.97,1.95,2l7.38-.05Z" style="fill:#fff;"/><path d="m327.06,69.79h7.51c1.07,0,1.94.87,1.94,1.94,0,0,0,0,0,.01v50c0,1.07.87,1.94,1.94,1.94,0,0,0,0,.01,0h23.34c1.07,0,1.94.87,1.94,1.94,0,.02,0,.04,0,.06v6.24c0,1.07-.86,1.94-1.93,1.95,0,0,0,0-.01,0h-34.74c-1.07-.03-1.92-.88-1.95-1.95v-60.18c.03-1.07.88-1.92,1.95-1.95Z" style="fill:#fff;"/><path d="m391.38,69.79h38.54c1.07.03,1.92.88,1.95,1.95v6.06c0,1.07-.87,1.94-1.94,1.94,0,0,0,0-.01,0h-27.14c-1.08.03-1.94.92-1.94,2v12.4c.04,1.04.9,1.86,1.94,1.86h25.51c1.07,0,1.94.86,1.95,1.93,0,.02,0,.05,0,.07v5.71c0,1.07-.87,1.94-1.94,1.94,0,0,0,0-.01,0h-25.51c-1.07,0-1.94.87-1.94,1.94h0v14.21c0,1.07.87,1.94,1.94,1.94h28.77c1.07,0,1.94.87,1.94,1.94,0,.02,0,.04,0,.06v6.24c0,1.07-.86,1.94-1.93,1.95,0,0,0,0-.01,0h-40.17c-1.07,0-1.94-.87-1.94-1.94,0,0,0,0,0-.01v-60.24c0-1.07.86-1.94,1.93-1.95,0,0,0,0,.01,0Z" style="fill:#fff;"/><path d="m496.8,81.62c-.71.8-1.93.86-2.73.15,0,0,0,0,0,0-1.13-1.03-2.42-1.88-3.81-2.52-2.07-1.03-4.34-1.57-6.65-1.59-1.35,0-2.69.17-4,.5-1.28.32-2.5.84-3.61,1.54-1.08.69-1.99,1.62-2.66,2.71-.7,1.21-1.05,2.6-1,4-.04,1.29.27,2.58.9,3.71.62,1.05,1.47,1.95,2.49,2.62,1.19.8,2.48,1.44,3.84,1.9,1.51.55,3.17,1.1,5,1.63,2.05.67,4.17,1.42,6.38,2.26,2.17.83,4.21,1.96,6.06,3.35,1.86,1.41,3.4,3.2,4.52,5.25,1.26,2.43,1.86,5.14,1.77,7.87.07,3.11-.58,6.19-1.9,9-1.2,2.47-2.93,4.65-5.07,6.38-2.2,1.74-4.72,3.03-7.42,3.8-2.91.85-5.92,1.27-8.95,1.26-4.18,0-8.32-.78-12.22-2.3-3.14-1.18-6.01-3-8.41-5.35-.76-.76-.76-1.99,0-2.74.02-.02.04-.04.06-.06l5.21-4.87c.81-.72,2.05-.66,2.79.13,1.43,1.5,3.12,2.73,5,3.61,3.63,1.89,7.83,2.39,11.81,1.41,1.35-.31,2.62-.89,3.75-1.68,1.11-.77,2.04-1.77,2.72-2.94.72-1.35,1.07-2.86,1-4.39.05-1.49-.36-2.96-1.18-4.2-.85-1.17-1.93-2.16-3.17-2.9-1.48-.88-3.06-1.6-4.7-2.12l-5.7-1.9c-1.97-.62-3.9-1.35-5.79-2.17-1.9-.83-3.66-1.96-5.2-3.35-1.58-1.44-2.85-3.18-3.76-5.11-1.03-2.37-1.52-4.93-1.44-7.51-.09-2.93.6-5.83,2-8.41,1.33-2.32,3.15-4.31,5.34-5.84,2.28-1.57,4.83-2.73,7.51-3.43,2.79-.76,5.66-1.14,8.55-1.14,3.37.02,6.72.6,9.9,1.72,2.58.86,4.99,2.15,7.14,3.81.84.66.99,1.88.33,2.72-.03.04-.06.08-.1.12l-4.6,5.07Z" style="fill:#fff;"/><path d="m566.82,81.62c-.7.79-1.92.86-2.71.16,0,0,0,0,0,0-2.89-2.56-6.6-4.01-10.46-4.11-1.35,0-2.69.17-4,.5-1.29.31-2.52.83-3.64,1.54-1.08.69-2,1.62-2.67,2.71-.7,1.21-1.05,2.6-1,4-.04,1.29.27,2.58.9,3.71.62,1.05,1.47,1.95,2.49,2.62,1.2.8,2.49,1.44,3.85,1.9,1.5.55,3.17,1.1,5,1.63,2.05.67,4.18,1.42,6.38,2.26,2.17.83,4.21,1.96,6.06,3.35,1.86,1.41,3.4,3.2,4.52,5.25,1.26,2.43,1.86,5.14,1.77,7.87.07,3.11-.58,6.19-1.9,9-1.2,2.47-2.93,4.65-5.07,6.38-2.2,1.74-4.72,3.03-7.42,3.8-2.92.86-5.95,1.28-9,1.26-4.18,0-8.32-.78-12.22-2.3-3.14-1.18-6-3-8.4-5.35-.76-.75-.77-1.97-.02-2.73.02-.02.05-.05.07-.07l5.22-4.87c.81-.71,2.04-.66,2.78.13,1.43,1.5,3.13,2.72,5,3.61,3.63,1.89,7.83,2.39,11.81,1.41,1.35-.31,2.62-.88,3.75-1.68,1.11-.77,2.04-1.77,2.72-2.94.72-1.35,1.07-2.86,1-4.39.06-1.49-.35-2.96-1.18-4.2-.84-1.17-1.92-2.16-3.16-2.9-1.49-.88-3.07-1.59-4.71-2.12l-5.7-1.9c-1.97-.62-3.9-1.35-5.79-2.17-1.9-.83-3.66-1.96-5.2-3.35-1.58-1.44-2.85-3.17-3.75-5.11-1.01-2.37-1.48-4.94-1.38-7.51-.09-2.93.6-5.83,2-8.41,1.33-2.32,3.15-4.31,5.34-5.84,2.28-1.57,4.83-2.73,7.51-3.43,2.79-.76,5.66-1.14,8.55-1.14,3.38.02,6.72.6,9.91,1.72,2.57.87,4.99,2.16,7.14,3.81.84.66.98,1.88.32,2.73-.03.04-.06.08-.1.11l-4.6,5.07Z" style="fill:#fff;"/><path d="m63.27,133.85h22.06C102.5,87.21,122.91,42.76,149.63,0h-21c-1.55,0-2.96.88-3.63,2.28-20.65,33.62-42,75.88-61.73,131.57Z" style="fill:#2cce88;"/></g></g></g></svg>